<svg xmlns="http://www.w3.org/2000/svg" width="64" height="59" stroke="none" stroke-linecap="round" stroke-linejoin="round" fill="#fff" fill-rule="nonzero"><path d="M10.979 40.2415c-.488-1.4638-.7515-3.44-.7515-6.0164s.244-4.5038.7515-6.0165c1.3906-4.3574 5.0844-6.7191 9.9542-6.7191 3.2511-.0725 6.3628 1.3194 8.4758 3.7914.1463.2049.1951.5075-.0488.7026l-3.1473 2.7814c-.244.2049-.488.1561-.7027-.0976-1.0638-1.3741-2.7177-2.1603-4.455-2.1177-2.1568 0-3.806 1.0637-4.5038 3.1863-.4001 1.2101-.488 2.6252-.488 4.4794s.0976 3.3279.488 4.5526c.7026 2.0592 2.3422 3.1473 4.5038 3.1473 1.7371.0488 3.3913-.7417 4.455-2.1177.205-.244.4489-.244.7027-.0488l3.1473 2.7813c.2439.205.1951.4587.0488.7027-1.9519 2.2739-4.7576 3.7572-8.4758 3.7572-4.8405 0-8.5587-2.3714-9.9542-6.7191M0 .0244h5.6115v58.3105H0z"/><path d="M.1074 0h40.3879v5.8066H.1074z"/><path d="M34.8301 0h5.6603v54.0409h-5.6603z"/><path d="M.1805 52.9088H40.544v5.6603H.1805zm45.7408-.0146v4.6014c0 .3025.2049.5074.4879.5074h17.0686c.3026 0 .5075-.2049.5075-.5074v-4.6014c0-.3026-.2049-.488-.5075-.488H46.3995c-.3026 0-.488.2049-.488.488"/></svg>