<?xml version="1.0" standalone="no"?>
<svg xmlns:xlink="http://www.w3.org/1999/xlink" id="wave" style="transform:rotate(0deg); transition: 0.3s" viewBox="0 0 1440 490" version="1.1" xmlns="http://www.w3.org/2000/svg"><defs><linearGradient id="sw-gradient-0" x1="0" x2="0" y1="1" y2="0"><stop stop-color="rgba(159, 204, 250, 1)" offset="0%"/><stop stop-color="rgba(9, 116, 241, 1)" offset="100%"/></linearGradient></defs><path style="transform:translate(0, 0px); opacity:1" fill="url(#sw-gradient-0)" d="M0,98L60,89.8C120,82,240,65,360,114.3C480,163,600,278,720,302.2C840,327,960,261,1080,236.8C1200,212,1320,229,1440,261.3C1560,294,1680,343,1800,318.5C1920,294,2040,196,2160,147C2280,98,2400,98,2520,130.7C2640,163,2760,229,2880,236.8C3000,245,3120,196,3240,155.2C3360,114,3480,82,3600,98C3720,114,3840,180,3960,228.7C4080,278,4200,310,4320,277.7C4440,245,4560,147,4680,106.2C4800,65,4920,82,5040,130.7C5160,180,5280,261,5400,253.2C5520,245,5640,147,5760,122.5C5880,98,6000,147,6120,147C6240,147,6360,98,6480,89.8C6600,82,6720,114,6840,122.5C6960,131,7080,114,7200,98C7320,82,7440,65,7560,49C7680,33,7800,16,7920,16.3C8040,16,8160,33,8280,98C8400,163,8520,278,8580,334.8L8640,392L8640,490L8580,490C8520,490,8400,490,8280,490C8160,490,8040,490,7920,490C7800,490,7680,490,7560,490C7440,490,7320,490,7200,490C7080,490,6960,490,6840,490C6720,490,6600,490,6480,490C6360,490,6240,490,6120,490C6000,490,5880,490,5760,490C5640,490,5520,490,5400,490C5280,490,5160,490,5040,490C4920,490,4800,490,4680,490C4560,490,4440,490,4320,490C4200,490,4080,490,3960,490C3840,490,3720,490,3600,490C3480,490,3360,490,3240,490C3120,490,3000,490,2880,490C2760,490,2640,490,2520,490C2400,490,2280,490,2160,490C2040,490,1920,490,1800,490C1680,490,1560,490,1440,490C1320,490,1200,490,1080,490C960,490,840,490,720,490C600,490,480,490,360,490C240,490,120,490,60,490L0,490Z"/><defs><linearGradient id="sw-gradient-1" x1="0" x2="0" y1="1" y2="0"><stop stop-color="rgba(159, 204, 250, 1)" offset="0%"/><stop stop-color="rgba(9, 116, 241, 1)" offset="100%"/></linearGradient></defs><path style="transform:translate(0, 50px); opacity:0.9" fill="url(#sw-gradient-1)" d="M0,147L60,179.7C120,212,240,278,360,269.5C480,261,600,180,720,179.7C840,180,960,261,1080,245C1200,229,1320,114,1440,122.5C1560,131,1680,261,1800,269.5C1920,278,2040,163,2160,171.5C2280,180,2400,310,2520,359.3C2640,408,2760,376,2880,343C3000,310,3120,278,3240,261.3C3360,245,3480,245,3600,245C3720,245,3840,245,3960,228.7C4080,212,4200,180,4320,179.7C4440,180,4560,212,4680,196C4800,180,4920,114,5040,114.3C5160,114,5280,180,5400,228.7C5520,278,5640,310,5760,326.7C5880,343,6000,343,6120,302.2C6240,261,6360,180,6480,147C6600,114,6720,131,6840,114.3C6960,98,7080,49,7200,73.5C7320,98,7440,196,7560,228.7C7680,261,7800,229,7920,179.7C8040,131,8160,65,8280,73.5C8400,82,8520,163,8580,204.2L8640,245L8640,490L8580,490C8520,490,8400,490,8280,490C8160,490,8040,490,7920,490C7800,490,7680,490,7560,490C7440,490,7320,490,7200,490C7080,490,6960,490,6840,490C6720,490,6600,490,6480,490C6360,490,6240,490,6120,490C6000,490,5880,490,5760,490C5640,490,5520,490,5400,490C5280,490,5160,490,5040,490C4920,490,4800,490,4680,490C4560,490,4440,490,4320,490C4200,490,4080,490,3960,490C3840,490,3720,490,3600,490C3480,490,3360,490,3240,490C3120,490,3000,490,2880,490C2760,490,2640,490,2520,490C2400,490,2280,490,2160,490C2040,490,1920,490,1800,490C1680,490,1560,490,1440,490C1320,490,1200,490,1080,490C960,490,840,490,720,490C600,490,480,490,360,490C240,490,120,490,60,490L0,490Z"/></svg>