<?xml version="1.0" standalone="no"?>
<svg xmlns:xlink="http://www.w3.org/1999/xlink" id="wave" style="transform:rotate(180deg); transition: 0.3s" viewBox="0 0 1440 290" version="1.1" xmlns="http://www.w3.org/2000/svg"><defs><linearGradient id="sw-gradient-0" x1="0" x2="0" y1="1" y2="0"><stop stop-color="rgba(159, 204, 250, 1)" offset="0%"/><stop stop-color="rgba(9, 116, 241, 1)" offset="100%"/></linearGradient></defs><path style="transform:translate(0, 0px); opacity:1" fill="url(#sw-gradient-0)" d="M0,87L60,87C120,87,240,87,360,111.2C480,135,600,184,720,203C840,222,960,213,1080,217.5C1200,222,1320,242,1440,222.3C1560,203,1680,145,1800,145C1920,145,2040,203,2160,207.8C2280,213,2400,164,2520,140.2C2640,116,2760,116,2880,106.3C3000,97,3120,77,3240,91.8C3360,106,3480,155,3600,149.8C3720,145,3840,87,3960,91.8C4080,97,4200,164,4320,159.5C4440,155,4560,77,4680,38.7C4800,0,4920,0,5040,38.7C5160,77,5280,155,5400,174C5520,193,5640,155,5760,159.5C5880,164,6000,213,6120,203C6240,193,6360,126,6480,116C6600,106,6720,155,6840,178.8C6960,203,7080,203,7200,207.8C7320,213,7440,222,7560,207.8C7680,193,7800,155,7920,135.3C8040,116,8160,116,8280,101.5C8400,87,8520,58,8580,43.5L8640,29L8640,290L8580,290C8520,290,8400,290,8280,290C8160,290,8040,290,7920,290C7800,290,7680,290,7560,290C7440,290,7320,290,7200,290C7080,290,6960,290,6840,290C6720,290,6600,290,6480,290C6360,290,6240,290,6120,290C6000,290,5880,290,5760,290C5640,290,5520,290,5400,290C5280,290,5160,290,5040,290C4920,290,4800,290,4680,290C4560,290,4440,290,4320,290C4200,290,4080,290,3960,290C3840,290,3720,290,3600,290C3480,290,3360,290,3240,290C3120,290,3000,290,2880,290C2760,290,2640,290,2520,290C2400,290,2280,290,2160,290C2040,290,1920,290,1800,290C1680,290,1560,290,1440,290C1320,290,1200,290,1080,290C960,290,840,290,720,290C600,290,480,290,360,290C240,290,120,290,60,290L0,290Z"/><defs><linearGradient id="sw-gradient-1" x1="0" x2="0" y1="1" y2="0"><stop stop-color="rgba(159, 204, 250, 1)" offset="0%"/><stop stop-color="rgba(9, 116, 241, 1)" offset="100%"/></linearGradient></defs><path style="transform:translate(0, 50px); opacity:0.9" fill="url(#sw-gradient-1)" d="M0,203L60,183.7C120,164,240,126,360,125.7C480,126,600,164,720,164.3C840,164,960,126,1080,135.3C1200,145,1320,203,1440,198.2C1560,193,1680,126,1800,101.5C1920,77,2040,97,2160,91.8C2280,87,2400,58,2520,58C2640,58,2760,87,2880,120.8C3000,155,3120,193,3240,178.8C3360,164,3480,97,3600,82.2C3720,68,3840,106,3960,101.5C4080,97,4200,48,4320,58C4440,68,4560,135,4680,178.8C4800,222,4920,242,5040,236.8C5160,232,5280,203,5400,164.3C5520,126,5640,77,5760,87C5880,97,6000,164,6120,169.2C6240,174,6360,116,6480,77.3C6600,39,6720,19,6840,24.2C6960,29,7080,58,7200,82.2C7320,106,7440,126,7560,140.2C7680,155,7800,164,7920,154.7C8040,145,8160,116,8280,130.5C8400,145,8520,203,8580,232L8640,261L8640,290L8580,290C8520,290,8400,290,8280,290C8160,290,8040,290,7920,290C7800,290,7680,290,7560,290C7440,290,7320,290,7200,290C7080,290,6960,290,6840,290C6720,290,6600,290,6480,290C6360,290,6240,290,6120,290C6000,290,5880,290,5760,290C5640,290,5520,290,5400,290C5280,290,5160,290,5040,290C4920,290,4800,290,4680,290C4560,290,4440,290,4320,290C4200,290,4080,290,3960,290C3840,290,3720,290,3600,290C3480,290,3360,290,3240,290C3120,290,3000,290,2880,290C2760,290,2640,290,2520,290C2400,290,2280,290,2160,290C2040,290,1920,290,1800,290C1680,290,1560,290,1440,290C1320,290,1200,290,1080,290C960,290,840,290,720,290C600,290,480,290,360,290C240,290,120,290,60,290L0,290Z"/></svg>